<?xml version="1.0" encoding="UTF-8" standalone="no"?>
<svg
   xmlns:dc="http://purl.org/dc/elements/1.1/"
   xmlns:cc="http://creativecommons.org/ns#"
   xmlns:rdf="http://www.w3.org/1999/02/22-rdf-syntax-ns#"
   xmlns:svg="http://www.w3.org/2000/svg"
   xmlns="http://www.w3.org/2000/svg"
   xmlns:sodipodi="http://sodipodi.sourceforge.net/DTD/sodipodi-0.dtd"
   xmlns:inkscape="http://www.inkscape.org/namespaces/inkscape"
   inkscape:version="1.0 (4035a4fb49, 2020-05-01)"
   sodipodi:docname="scissorsIcon.svg"
   id="svg6"
   width="256.000000pt"
   viewBox="0 0 256.000000 256.000000"
   version="1.0"
   preserveAspectRatio="xMidYMid meet"
   height="256.000000pt">
  <metadata
     id="metadata12">
    <rdf:RDF>
      <cc:Work
         rdf:about="">
        <dc:format>image/svg+xml</dc:format>
        <dc:type
           rdf:resource="http://purl.org/dc/dcmitype/StillImage" />
      </cc:Work>
    </rdf:RDF>
  </metadata>
  <defs
     id="defs10" />
  <sodipodi:namedview
     inkscape:current-layer="svg6"
     inkscape:window-maximized="1"
     inkscape:window-y="-8"
     inkscape:window-x="-8"
     inkscape:cy="170.66667"
     inkscape:cx="170.66667"
     inkscape:zoom="1.8398438"
     showgrid="false"
     id="namedview8"
     inkscape:window-height="837"
     inkscape:window-width="1440"
     inkscape:pageshadow="2"
     inkscape:pageopacity="0"
     guidetolerance="10"
     gridtolerance="10"
     objecttolerance="10"
     borderopacity="1"
     bordercolor="#666666"
     pagecolor="#ffffff" />
  <g
     style="fill:#ffffff"
     id="g4"
     transform="translate(0.000000,256.000000) scale(0.100000,-0.100000)"
     stroke="none"
     fill="#000000">
    <path
       style="fill:#ffffff"
       id="path2"
       d="M1626 2469 c-114 -28 -217 -116 -274 -233 -46 -95 -62 -166 -73 -341 -14 -210 -22 -247 -73 -352 -72 -148 -132 -224 -431 -553 -358 -393 -683 -773 -692 -809 -12 -50 48 -110 98 -98 38 10 429 346 853 732 249 227 355 313 472 383 137 81 207 99 431 111 216 11 287 28 373 88 145 102 207 291 142 434 -23 51 -154 189 -202 214 -89 46 -161 9 -371 -192 -81 -79 -153 -143 -158 -143 -23 0 10 42 132 169 198 207 235 272 198 355 -24 56 -161 191 -220 218 -51 24 -148 32 -205 17z m158 -157 c83 -48 116 -143 76 -221 -26 -52 -163 -196 -242 -256 -77 -58 -112 -65 -147 -31 -26 26 -26 28 -26 169 1 152 7 180 61 259 65 94 191 130 278 80z m445 -456 c43 -23 97 -89 105 -129 8 -43 -8 -111 -36 -150 -41 -58 -157 -92 -353 -104 -128 -7 -150 1 -142 58 7 53 67 129 173 221 132 114 188 137 253 104z" />
  </g>
</svg>
